<svg width="24" height="24" viewBox="0 0 24 24" fill="none" xmlns="http://www.w3.org/2000/svg">
<path fill-rule="evenodd" clip-rule="evenodd" d="M23.7071 1.70711C24.0976 1.31658 24.0976 0.683418 23.7071 0.292894C23.3166 -0.0976306 22.6834 -0.0976306 22.2929 0.292894L12 10.5858L1.70711 0.292894C1.31658 -0.0976296 0.683416 -0.0976295 0.292892 0.292894C-0.0976321 0.683418 -0.097632 1.31658 0.292892 1.70711L10.5858 12L0.292893 22.2929C-0.0976311 22.6834 -0.0976311 23.3166 0.292893 23.7071C0.683417 24.0976 1.31658 24.0976 1.70711 23.7071L12 13.4142L22.2929 23.7071C22.6834 24.0976 23.3166 24.0976 23.7071 23.7071C24.0976 23.3166 24.0976 22.6834 23.7071 22.2929L13.4142 12L23.7071 1.70711Z" fill="#2E2B2B"/>
</svg>
