<svg width="23" height="23" viewBox="0 0 23 23" fill="none" xmlns="http://www.w3.org/2000/svg">
<g clip-path="url(#clip0)">
<path d="M20.0649 1.67551C17.8309 -0.558502 14.1963 -0.558502 11.9623 1.67551L3.43113 10.2066C3.16784 10.4699 3.16784 10.8964 3.43113 11.1597C3.69442 11.423 4.12095 11.423 4.38424 11.1597L12.9154 2.62861C14.5714 0.973873 17.4557 0.973873 19.1118 2.62861C20.8199 4.33668 20.8199 7.11635 19.1118 8.82442L7.19922 20.8711C6.18031 21.89 4.40508 21.89 3.38621 20.8711C2.33504 19.8199 2.33504 18.1099 3.38621 17.0587L14.8222 5.48789C15.204 5.10615 15.8701 5.10615 16.2519 5.48789C16.6461 5.88213 16.6461 6.52393 16.2519 6.91821L5.29305 18.0118C5.06575 18.2391 5.06575 18.7376 5.29305 18.9649C5.55634 19.2282 5.98287 19.2282 6.24616 18.9649L17.2049 7.87127C18.1252 6.95104 18.1252 5.45496 17.2049 4.53479C16.3137 3.64358 14.759 3.64488 13.8691 4.53479L2.4331 16.1056C0.868653 17.67 0.868653 20.2597 2.4331 21.8242C3.19731 22.5884 4.21291 23 5.29301 23C6.37311 23 7.38879 22.5884 8.15233 21.8242L20.0649 9.77748C22.2989 7.54347 22.2989 3.90947 20.0649 1.67551Z" fill="#2E2B2B"/>
</g>
<defs>
<clipPath id="clip0">
<rect width="23" height="23" fill="white"/>
</clipPath>
</defs>
</svg>
