<svg width="614" height="323" viewBox="0 0 614 323" fill="none" xmlns="http://www.w3.org/2000/svg">
<g opacity="0.7">
<path d="M254.61 343.147L273.938 51.5803L599.663 88.6461L577.979 367.177L254.61 343.147Z" fill="#D6D9DC"/>
<path d="M599.663 88.646L384.962 118.458L367.301 361.646L577.877 377.527L599.663 88.646Z" fill="#E2E2E2"/>
<path d="M502.248 18.18L277.39 46.0831C272.64 46.6725 271.353 52.9568 275.489 55.3657L383.193 118.091C384.132 118.638 385.225 118.864 386.304 118.735L595.394 93.6761C599.929 93.1326 601.421 87.2932 597.702 84.6409L505.767 19.0712C504.747 18.3438 503.491 18.0257 502.248 18.18Z" fill="url(#paint0_linear)"/>
</g>
<g opacity="0.7">
<path d="M50.5271 392.765L13.0625 241.211L184.883 207.234L219.033 352.535L50.5271 392.765Z" fill="#D6D9DC"/>
<path d="M184.884 207.234L80.4289 257.242L110.893 383.9L220.661 357.82L184.884 207.234Z" fill="#E2E2E2"/>
<path d="M124.056 187.145L14.0839 237.618C11.4666 238.82 11.8809 242.66 14.6942 243.276L79.1523 257.376C79.7844 257.514 80.4443 257.444 81.0334 257.177L183.498 210.663C186.001 209.527 185.785 205.903 183.164 205.072L126.214 187.012C125.503 186.787 124.734 186.834 124.056 187.145Z" fill="url(#paint1_linear)"/>
</g>
<defs>
<linearGradient id="paint0_linear" x1="523.324" y1="25.7149" x2="515.55" y2="128.806" gradientUnits="userSpaceOnUse">
<stop stop-color="white"/>
<stop offset="1" stop-color="#EFF0F2"/>
</linearGradient>
<linearGradient id="paint1_linear" x1="136.207" y1="187.492" x2="148.974" y2="241.231" gradientUnits="userSpaceOnUse">
<stop stop-color="white"/>
<stop offset="1" stop-color="#EFF0F2"/>
</linearGradient>
</defs>
</svg>
